<svg width="34" height="34" viewBox="0 0 34 34" fill="none" xmlns="http://www.w3.org/2000/svg">
    <path d="M33.7924 31.7892L23.9157 21.9125C25.789 19.5997 26.9166 16.6595 26.9166 13.4584C26.9166 6.03746 20.8792 0 13.4583 0C6.03739 0 0 6.03746 0 13.4584C0 20.8793 6.03746 26.9167 13.4584 26.9167C16.6595 26.9167 19.5997 25.789 21.9125 23.9157L31.7892 33.7925C32.0659 34.0691 32.5143 34.0691 32.791 33.7925L33.7925 32.7909C34.0691 32.5143 34.0691 32.0658 33.7924 31.7892ZM13.4584 24.0834C7.5994 24.0834 2.83336 19.3173 2.83336 13.4584C2.83336 7.5994 7.5994 2.83336 13.4584 2.83336C19.3173 2.83336 24.0834 7.5994 24.0834 13.4584C24.0834 19.3173 19.3173 24.0834 13.4584 24.0834Z" fill="black"/>
    </svg>
    