<svg width="38" height="38" viewBox="0 0 38 38" fill="none" xmlns="http://www.w3.org/2000/svg">
    <path d="M38 19C38 8.49892 29.5022 0 19 0C8.49892 0 0 8.49776 0 19C0 29.408 8.42673 38 19 38C29.5298 38 38 29.4559 38 19ZM19 2.22656C28.2489 2.22656 35.7734 9.75107 35.7734 19C35.7734 22.3833 34.7671 25.6353 32.9009 28.3898C25.4072 20.329 12.6065 20.3145 5.09906 28.3898C3.23286 25.6353 2.22656 22.3833 2.22656 19C2.22656 9.75107 9.75107 2.22656 19 2.22656ZM6.48776 30.1699C13.1506 22.6964 24.8511 22.6982 31.5119 30.1699C24.8268 37.6492 13.1759 37.6515 6.48776 30.1699Z" fill="black"/>
    <path d="M19 20.1133C22.6831 20.1133 25.6797 17.1167 25.6797 13.4336V11.207C25.6797 7.52393 22.6831 4.52734 19 4.52734C15.3169 4.52734 12.3203 7.52393 12.3203 11.207V13.4336C12.3203 17.1167 15.3169 20.1133 19 20.1133ZM14.5469 11.207C14.5469 8.75143 16.5444 6.75391 19 6.75391C21.4556 6.75391 23.4531 8.75143 23.4531 11.207V13.4336C23.4531 15.8892 21.4556 17.8867 19 17.8867C16.5444 17.8867 14.5469 15.8892 14.5469 13.4336V11.207Z" fill="black"/>
    </svg>
    